<?xml version="1.0" encoding="UTF-8"?>
<svg version="1.1" xmlns="http://www.w3.org/2000/svg" width="360" height="360">
<path d="M0 0 C118.8 0 237.6 0 360 0 C360 118.8 360 237.6 360 360 C241.2 360 122.4 360 0 360 C0 241.2 0 122.4 0 0 Z " fill="#FDFDFD" transform="translate(0,0)"/>
<path d="M0 0 C-0.46970726 2.1919672 -0.9795266 3.96266615 -2.0625 5.9375 C-3.19267603 8.42388726 -3.0667984 10.29689156 -3 13 C-2.16443069 13.01839432 -1.32886139 13.03678864 -0.4679718 13.05574036 C7.46034625 13.23268035 15.38822521 13.42268668 23.31589031 13.62686634 C27.39023546 13.73135495 31.4645728 13.83103316 35.53930664 13.91918945 C39.48190633 14.00467298 43.42397939 14.10348216 47.36603737 14.21100426 C48.85957489 14.24950031 50.35323819 14.28343415 51.84699059 14.31241798 C61.21649522 14.49790202 69.93929625 15.4813941 79 18 C79 18.66 79 19.32 79 20 C78.39003174 19.98316162 77.78006348 19.96632324 77.15161133 19.94897461 C74.37050294 19.89850509 71.59395659 19.91735779 68.8125 19.9375 C67.85279297 19.90978516 66.89308594 19.88207031 65.90429688 19.85351562 C63.02102508 19.90339922 60.73146544 20.06263052 58 21 C55.52669476 23.70057814 54.26745992 26.59224406 53 30 C52.59652344 31.00289062 52.19304687 32.00578125 51.77734375 33.0390625 C51.36162109 34.31910156 51.36162109 34.31910156 50.9375 35.625 C49.82696548 38.84465451 48.69312511 41.76810824 46.9375 44.6875 C45.20302294 47.65289627 44.11719087 50.47397742 42.9765625 53.6953125 C40.84490261 58.72602985 37.81610952 63.33000517 35 68 C31.24722902 73.87092332 31.24722902 73.87092332 30.125 80.5625 C30.063125 81.7690625 30.063125 81.7690625 30 83 C27 85 27 85 24 85 C23.75378906 85.84175781 23.50757813 86.68351562 23.25390625 87.55078125 C21.85525532 91.3981606 20.0270645 94.68495629 17.9375 98.1875 C15.11129079 102.91890802 15.11129079 102.91890802 13 108 C13.69867188 108.03738281 14.39734375 108.07476562 15.1171875 108.11328125 C16.02726563 108.17902344 16.93734375 108.24476563 17.875 108.3125 C18.77992188 108.37050781 19.68484375 108.42851562 20.6171875 108.48828125 C23 109 23 109 25 112 C20.05 112 15.1 112 10 112 C9.34 113.65 8.68 115.3 8 117 C6.77733969 119.23052895 5.53475741 121.43126763 4.25 123.625 C3.53037081 124.86798099 2.8116305 126.11147699 2.09375 127.35546875 C1.73925781 127.9695459 1.38476562 128.58362305 1.01953125 129.21630859 C-0.44030633 131.77032521 -1.84787572 134.35143914 -3.25 136.9375 C-3.72566406 137.81148437 -4.20132813 138.68546875 -4.69140625 139.5859375 C-5.51706508 141.10909319 -6.33803105 142.63481085 -7.15234375 144.1640625 C-8.87951433 147.33162817 -9.93456138 148.95637425 -13 151 C-11.98790993 157.21055269 -9.7559424 162.93025058 -6 168 C-2.90487854 169.29047409 -0.30812749 169.38227251 3 169 C3 170.32 3 171.64 3 173 C1.02 173.33 -0.96 173.66 -3 174 C-0.19214772 180.24478815 -0.19214772 180.24478815 4.8125 184.5625 C5.534375 184.706875 6.25625 184.85125 7 185 C6.67 186.65 6.34 188.3 6 190 C6.969375 189.979375 7.93875 189.95875 8.9375 189.9375 C12 190 12 190 13 191 C13.22503566 193.77543985 13.34841362 195.44939248 11.8359375 197.83959961 C10.7139334 200.044654 10.7139334 200.044654 11.87109375 202.48266602 C12.38800781 203.39717529 12.90492188 204.31168457 13.4375 205.25390625 C14.00339844 206.27419922 14.56929687 207.29449219 15.15234375 208.34570312 C15.76207031 209.40724609 16.37179687 210.46878906 17 211.5625 C17.86818359 213.11420898 17.86818359 213.11420898 18.75390625 214.69726562 C19.91561039 216.77247984 21.08226361 218.84493148 22.25390625 220.91455078 C23.99306253 223.98774109 25.7245348 227.06447206 27.4375 230.15234375 C28.17806641 231.48060181 28.17806641 231.48060181 28.93359375 232.83569336 C30 235 30 235 30 237 C30.495 236.835 30.99 236.67 31.5 236.5 C36.39339641 235.52132072 40.72141938 235.14761292 45 238 C44.9375 240.3125 44.9375 240.3125 44 243 C40.4375 244.8125 40.4375 244.8125 37 246 C37.33 247.65 37.66 249.3 38 251 C38.66 251 39.32 251 40 251 C40.42410156 251.88300781 40.84820312 252.76601563 41.28515625 253.67578125 C42.50279988 256.19203354 43.76546015 258.6798867 45.0546875 261.16015625 C46.28617886 263.53128085 47.32554301 265.81578382 48.3203125 268.30859375 C49.91314304 271.73545489 51.01718897 273.63934334 54 276 C60.46235287 277.87207504 67.31181942 277.96497344 74 278 C74 278.66 74 279.32 74 280 C58.66569841 285.27827592 42.17813044 287 26 287 C26 288.65 26 290.3 26 292 C24.125 291.6875 24.125 291.6875 22 291 C21.01 289.515 21.01 289.515 20 288 C16.50615721 286.83538574 13.66344611 286.86431681 10 287 C9.67 287.33 9.34 287.66 9 288 C6.5 288.125 6.5 288.125 4 288 C3.67 287.67 3.34 287.34 3 287 C1.65252916 286.76924918 0.29622435 286.58846937 -1.0625 286.4375 C-2.361875 286.293125 -3.66125 286.14875 -5 286 C-5 286.66 -5 287.32 -5 288 C-8.46941546 287.54177532 -11.67395049 287.10868317 -15 286 C-14.67 287.98 -14.34 289.96 -14 292 C-16.375 291.6875 -16.375 291.6875 -19 291 C-19.99 289.515 -19.99 289.515 -21 288 C-23.17415043 287.52427183 -23.17415043 287.52427183 -25.72509766 287.56762695 C-27.19639633 287.53793571 -27.19639633 287.53793571 -28.69741821 287.50764465 C-29.75891083 287.50125473 -30.82040344 287.49486481 -31.9140625 287.48828125 C-32.99883881 287.47033005 -34.08361511 287.45237885 -35.20126343 287.43388367 C-38.67580239 287.3795769 -42.15020242 287.34581932 -45.625 287.3125 C-47.97658192 287.27934496 -50.32814546 287.24485702 -52.6796875 287.20898438 C-58.45300041 287.12383894 -64.22633087 287.05557568 -70 287 C-70.33 286.01 -70.66 285.02 -71 284 C-70.34 283.01 -69.68 282.02 -69 281 C-68.34 281 -67.68 281 -67 281 C-68.84973592 270.27153165 -73.03891941 260.28323935 -79.359375 251.41796875 C-82.20610709 247.22242788 -84.59833197 242.7547916 -87.0703125 238.33203125 C-88.96366861 234.95954207 -88.96366861 234.95954207 -91.2421875 231.76171875 C-93 229 -93 229 -93 226 C-94.11375 226.020625 -95.2275 226.04125 -96.375 226.0625 C-100 226 -100 226 -102 225 C-101.66214526 238.32566273 -100.87888008 251.55416543 -99.5 264.8125 C-99.36940186 266.07537842 -99.23880371 267.33825684 -99.10424805 268.6394043 C-98.50057781 274.91284066 -98.50057781 274.91284066 -97 281 C-96.08476562 280.97679687 -95.16953125 280.95359375 -94.2265625 280.9296875 C-93.03804687 280.91164063 -91.84953125 280.89359375 -90.625 280.875 C-89.44164062 280.85179687 -88.25828125 280.82859375 -87.0390625 280.8046875 C-84 281 -84 281 -82 283 C-82 283.99 -82 284.98 -82 286 C-83.2375 286.12375 -84.475 286.2475 -85.75 286.375 C-88.94532873 286.76248275 -91.14078799 287.52109724 -94 289 C-95.65 289 -97.3 289 -99 289 C-99 292.96 -99 296.92 -99 301 C-100.32 301.33 -101.64 301.66 -103 302 C-104.28446919 299.43106162 -104.32977144 297.23423663 -104.5625 294.375 C-104.68818359 292.87066406 -104.68818359 292.87066406 -104.81640625 291.3359375 C-104.87699219 290.56507813 -104.93757813 289.79421875 -105 289 C-106.98 288.67 -108.96 288.34 -111 288 C-111 289.32 -111 290.64 -111 292 C-114.875 290.125 -114.875 290.125 -116 289 C-118.14614576 288.98301858 -120.29289165 289.03811783 -122.4375 289.12109375 C-123.81005817 289.17009658 -125.18261678 289.21908693 -126.55517578 289.26806641 C-127.28061584 289.29588196 -128.00605591 289.32369751 -128.753479 289.35235596 C-140.20897198 289.78652372 -151.66036858 290.11190854 -163.125 290.125 C-164.12917969 290.12943115 -165.13335937 290.1338623 -166.16796875 290.13842773 C-171.22487444 290.12842869 -175.99180006 289.76497565 -181 289 C-183.4154191 288.91188385 -185.83297983 288.86976835 -188.25 288.875 C-190.05210937 288.87113281 -190.05210937 288.87113281 -191.890625 288.8671875 C-195.03448252 288.85846364 -195.03448252 288.85846364 -198 290 C-199.56118428 290.06740865 -201.1250252 290.08514456 -202.6875 290.0625 C-203.49574219 290.05347656 -204.30398437 290.04445313 -205.13671875 290.03515625 C-206.05904297 290.01775391 -206.05904297 290.01775391 -207 290 C-207 292.64 -207 295.28 -207 298 C-208.32 298 -209.64 298 -211 298 C-211.3403125 296.081875 -211.3403125 296.081875 -211.6875 294.125 C-212.16100084 291.93067868 -212.16100084 291.93067868 -213 290 C-215.48313064 288.40311361 -215.48313064 288.40311361 -218 288 C-218 286.68 -218 285.36 -218 284 C-217.34 284 -216.68 284 -216 284 C-217.78907722 280.24848856 -217.78907722 280.24848856 -221.1875 278.1875 C-221.785625 278.125625 -222.38375 278.06375 -223 278 C-223 276.68 -223 275.36 -223 274 C-220.36 273.67 -217.72 273.34 -215 273 C-215 270.36 -215 267.72 -215 265 C-215.99 264.67 -216.98 264.34 -218 264 C-217.62864943 260.75068249 -217.23400356 259.25392981 -214.98051453 256.80854797 C-212.47299447 253.25265869 -212.46823436 250.43891253 -212.56176758 246.25073242 C-212.56278976 245.48566376 -212.56381195 244.72059509 -212.56486511 243.93234253 C-212.57273811 241.40623208 -212.60875272 238.88132493 -212.64453125 236.35546875 C-212.65454736 234.58491473 -212.66262833 232.81434881 -212.66886902 231.04377747 C-212.68980239 226.37586162 -212.73381909 221.70845786 -212.78363037 217.04077148 C-212.85880819 209.61072318 -212.89747777 202.18038226 -212.93912315 194.75008583 C-212.95653992 192.17802752 -212.98274674 189.60618823 -213.01069641 187.03422546 C-213.10192539 176.97236509 -212.78146473 167.03463511 -212 157 C-213.32 157 -214.64 157 -216 157 C-216 155.68 -216 154.36 -216 153 C-215.360625 152.79375 -214.72125 152.5875 -214.0625 152.375 C-211.73212328 151.15752219 -211.73212328 151.15752219 -211.375 148.4375 C-210.94258197 144.4736681 -210.890691 140.60736538 -210.9375 136.625 C-210.94201172 135.88894531 -210.94652344 135.15289062 -210.95117188 134.39453125 C-210.96284858 132.59631842 -210.98077989 130.79814803 -211 129 C-213.97 128.01 -216.94 127.02 -220 126 C-220 125.01 -220 124.02 -220 123 C-217.36 123 -214.72 123 -212 123 C-211.89921496 117.12759172 -212.26026141 111.45597623 -212.9375 105.625 C-213.02451172 104.81933594 -213.11152344 104.01367188 -213.20117188 103.18359375 C-213.60369799 98.95979037 -213.60369799 98.95979037 -215 95 C-215.08342159 93.55151418 -215.10732861 92.09929131 -215.09765625 90.6484375 C-215.09443359 89.79765625 -215.09121094 88.946875 -215.08789062 88.0703125 C-215.07951172 87.18085937 -215.07113281 86.29140625 -215.0625 85.375 C-215.05798828 84.4778125 -215.05347656 83.580625 -215.04882812 82.65625 C-215.03702591 80.43743352 -215.02056155 78.21874982 -215 76 C-216.05960938 76.01160156 -217.11921875 76.02320312 -218.2109375 76.03515625 C-219.59895658 76.04453476 -220.98697755 76.05363489 -222.375 76.0625 C-223.07367188 76.07087891 -223.77234375 76.07925781 -224.4921875 76.08789062 C-229.7734375 76.11328125 -229.7734375 76.11328125 -232 75 C-231.67 73.68 -231.34 72.36 -231 71 C-223.575 70.01 -223.575 70.01 -216 69 C-216.16298584 67.84048828 -216.32597168 66.68097656 -216.49389648 65.48632812 C-217.00518977 61.38155221 -217.1143489 57.35852674 -217.09765625 53.21875 C-217.0962413 52.51979614 -217.09482635 51.82084229 -217.09336853 51.10070801 C-217.0878367 48.90042571 -217.07529777 46.70025077 -217.0625 44.5 C-217.05747616 42.99479315 -217.05291482 41.48958468 -217.04882812 39.984375 C-217.03788977 36.32288265 -217.02067359 32.66145183 -217 29 C-219.97 28.67 -222.94 28.34 -226 28 C-225.67 26.35 -225.34 24.7 -225 23 C-226.98 23.33 -228.96 23.66 -231 24 C-231.33 23.34 -231.66 22.68 -232 22 C-226.16200408 20.30167391 -221.06892629 19.74712807 -215 20 C-215 19.34 -215 18.68 -215 18 C-215.99 17.67 -216.98 17.34 -218 17 C-217.690625 16.360625 -217.38125 15.72125 -217.0625 15.0625 C-215.68064597 11.07950896 -215.3463457 7.18349151 -215 3 C-213.68 3 -212.36 3 -211 3 C-210.67 6.3 -210.34 9.6 -210 13 C-207.03 13 -204.06 13 -201 13 C-201 13.66 -201 14.32 -201 15 C-195.35787764 14.93120753 -189.7165024 14.84328265 -184.07495117 14.73754883 C-182.15543902 14.7042775 -180.23582852 14.67625246 -178.31616211 14.65356445 C-175.55800428 14.62005879 -172.80074957 14.56774597 -170.04296875 14.51171875 C-169.18350143 14.50532883 -168.32403412 14.4989389 -167.43852234 14.49235535 C-166.23761711 14.46266411 -166.23761711 14.46266411 -165.01245117 14.43237305 C-163.95655037 14.41571846 -163.95655037 14.41571846 -162.87931824 14.39872742 C-160.48225772 13.89015269 -159.55923557 12.83851869 -158 11 C-157.01 11.33 -156.02 11.66 -155 12 C-153.8125 14.5625 -153.8125 14.5625 -153 17 C-148.70838953 17.05783842 -144.41687855 17.0935412 -140.125 17.125 C-138.90167969 17.14175781 -137.67835938 17.15851562 -136.41796875 17.17578125 C-134.66806641 17.18544922 -134.66806641 17.18544922 -132.8828125 17.1953125 C-131.80402832 17.20578613 -130.72524414 17.21625977 -129.61376953 17.22705078 C-126.83955978 17.26839977 -126.83955978 17.26839977 -125 15 C-124.01 15 -123.02 15 -122 15 C-122 15.99 -122 16.98 -122 18 C-120.35 18 -118.7 18 -117 18 C-117 17.01 -117 16.02 -117 15 C-116.01 15 -115.02 15 -114 15 C-114.05220703 13.86111328 -114.05220703 13.86111328 -114.10546875 12.69921875 C-114.13253906 11.70535156 -114.15960938 10.71148437 -114.1875 9.6875 C-114.22230469 8.70136719 -114.25710937 7.71523438 -114.29296875 6.69921875 C-114 4 -114 4 -112.48828125 2.14453125 C-111.99714844 1.76683594 -111.50601563 1.38914062 -111 1 C-110.01 1.33 -109.02 1.66 -108 2 C-107.10395632 8.04829486 -106.88730557 13.8894576 -107 20 C-106.01 19.67 -105.02 19.34 -104 19 C-102.00258264 18.8807098 -100.00093876 18.82476065 -98 18.8125 C-96.948125 18.79832031 -95.89625 18.78414062 -94.8125 18.76953125 C-92 19 -92 19 -89 21 C-88.25 23.0625 -88.25 23.0625 -88 25 C-88.33 25.33 -88.66 25.66 -89 26 C-94.28 26 -99.56 26 -105 26 C-105 49.43 -105 72.86 -105 97 C-104.34 97 -103.68 97 -103 97 C-101.45191314 94.65097245 -100.02153045 92.31208254 -98.625 89.875 C-97.84780211 88.53821962 -97.06917052 87.2022717 -96.2890625 85.8671875 C-95.9082251 85.21508301 -95.5273877 84.56297852 -95.13500977 83.89111328 C-93.51766178 81.19634506 -91.76658115 78.59858389 -90 76 C-88.07289311 73.00227817 -86.65155409 70.51839208 -86 67 C-85.01 67 -84.02 67 -83 67 C-82.85304687 65.69482422 -82.85304687 65.69482422 -82.703125 64.36328125 C-81.93875015 60.70702153 -80.70189791 58.35721247 -78.75 55.1875 C-77.80060547 53.61935547 -77.80060547 53.61935547 -76.83203125 52.01953125 C-76.22746094 51.02308594 -75.62289062 50.02664062 -75 49 C-74.13651163 47.46353502 -73.28127487 45.92237868 -72.4375 44.375 C-70.19472355 40.29047335 -67.78515856 36.32062542 -65.33203125 32.359375 C-63.98087697 29.96612812 -62.96200395 27.57142287 -62 25 C-64.64 24.67 -67.28 24.34 -70 24 C-70 22.68 -70 21.36 -70 20 C-66.57511902 18.28755951 -63.70109441 17.8765136 -59.9375 17.6875 C-55.70908596 17.38538507 -55.70908596 17.38538507 -52.5625 14.4375 C-52.046875 13.633125 -51.53125 12.82875 -51 12 C-50.01 12 -49.02 12 -48 12 C-48 13.32 -48 14.64 -48 16 C-43.67453222 15.66865184 -39.3517929 15.31396104 -35.0300293 14.93798828 C-33.5611534 14.81346616 -32.09173111 14.69521739 -30.62182617 14.58349609 C-28.50262695 14.42130882 -26.38645117 14.23627283 -24.26953125 14.046875 C-22.99698486 13.94213867 -21.72443848 13.83740234 -20.41333008 13.72949219 C-13.7009832 12.29493869 -9.37916489 6.5890912 -4.875 1.6875 C-3 0 -3 0 0 0 Z " fill="#060606" transform="translate(255,29)"/>
<path d="M0 0 C2.31 0.33 4.62 0.66 7 1 C7.33 8.26 7.66 15.52 8 23 C8.66 23.33 9.32 23.66 10 24 C12.58041711 36.07907483 12.41184 48.7077734 12.625 61 C12.66330419 62.85418249 12.70236244 64.70834956 12.7421875 66.5625 C12.83678697 71.04153718 12.92129154 75.52065657 13 80 C10.69 79.34 8.38 78.68 6 78 C6 68.43 6 58.86 6 49 C4.515 49.495 4.515 49.495 3 50 C1.19430467 33.31812849 -0.57802619 16.80557625 0 0 Z " fill="#191919" transform="translate(125,222)"/>
<path d="M0 0 C0.66 0 1.32 0 2 0 C4.07586261 11.6331243 4.42258342 23.09055948 4.625 34.875 C4.66328471 36.73829739 4.70234205 38.60157908 4.7421875 40.46484375 C4.8370146 44.9764313 4.92144889 49.48810094 5 54 C3.35 53.67 1.7 53.34 0 53 C0 35.51 0 18.02 0 0 Z " fill="#D7D7D7" transform="translate(133,248)"/>
<path d="M0 0 C2 1 2 1 3.125 2.9375 C4.37252735 7.30384573 4.14365389 11.49086393 4 16 C4 16.66 4 17.32 4 18 C6.64 18 9.28 18 12 18 C12 16.35 12 14.7 12 13 C14.64 13.33 17.28 13.66 20 14 C20 15.32 20 16.64 20 18 C19.00097656 18.25394531 18.00195312 18.50789063 16.97265625 18.76953125 C15.6690937 19.11652272 14.36571765 19.4642154 13.0625 19.8125 C12.40314453 19.97814453 11.74378906 20.14378906 11.06445312 20.31445312 C8.92680031 20.86528568 8.92680031 20.86528568 6 22 C5.67 22.99 5.34 23.98 5 25 C5.66 25.33 6.32 25.66 7 26 C6.01 26.33 5.02 26.66 4 27 C2 25 2 25 1 22 C0.34 21.401875 -0.32 20.80375 -1 20.1875 C-3.51854331 17.43284325 -3.84600259 15.69593772 -4 12 C-3.1875 10.125 -3.1875 10.125 -2 8 C-1.23803279 5.35101332 -0.62667722 2.68575951 0 0 Z " fill="#1B1B1B" transform="translate(161,218)"/>
<path d="M0 0 C1.32 0 2.64 0 4 0 C4 16.5 4 33 4 50 C3.67 50 3.34 50 3 50 C1.19430467 33.31812849 -0.57802619 16.80557625 0 0 Z " fill="#E1E1E1" transform="translate(125,222)"/>
<path d="M0 0 C1.93719378 -0.05406122 3.87481921 -0.09282025 5.8125 -0.125 C6.89144531 -0.14820313 7.97039062 -0.17140625 9.08203125 -0.1953125 C12 0 12 0 15 2 C15.75 4.0625 15.75 4.0625 16 6 C15 7 15 7 11.40234375 7.09765625 C9.91403133 7.0909822 8.42573568 7.07902183 6.9375 7.0625 C6.17888672 7.05798828 5.42027344 7.05347656 4.63867188 7.04882812 C2.75908129 7.0370068 0.87953101 7.01907078 -1 7 C-1 7.99 -1 8.98 -1 10 C-1.66 10 -2.32 10 -3 10 C-3.93065133 7.39417629 -4.14917407 6.35801776 -3.0625 3.75 C-2.711875 3.1725 -2.36125 2.595 -2 2 C-1.34 2 -0.68 2 0 2 C0 1.34 0 0.68 0 0 Z " fill="#0A0A0A" transform="translate(151,48)"/>
<path d="M0 0 C3.82350061 3.39866721 6.71296575 7.43530459 9 12 C9 12.99 9 13.98 9 15 C8.01 15.33 7.02 15.66 6 16 C2 11.375 2 11.375 2 8 C0.35 8.33 -1.3 8.66 -3 9 C-3 9.99 -3 10.98 -3 12 C-5.31 12.33 -7.62 12.66 -10 13 C-10.66 10.69 -11.32 8.38 -12 6 C-9.36 6.33 -6.72 6.66 -4 7 C-2.10786631 4.61426621 -0.97608217 2.92824652 0 0 Z " fill="#181818" transform="translate(199,283)"/>
<path d="M0 0 C0.66 0 1.32 0 2 0 C1.73958333 1.98567708 1.47916667 3.97135417 1.21875 5.95703125 C0.946767 8.15471706 0.946767 8.15471706 1 11 C1 12.66666667 1 14.33333333 1 16 C-0.65 16.33 -2.3 16.66 -4 17 C-4 15.68 -4 14.36 -4 13 C-5.32 13 -6.64 13 -8 13 C-8 10.03 -8 7.06 -8 4 C-7.05125 3.896875 -6.1025 3.79375 -5.125 3.6875 C-1.70892499 3.31460705 -1.70892499 3.31460705 0 0 Z " fill="#454545" transform="translate(107,283)"/>
<path d="M0 0 C1.65 0 3.3 0 5 0 C6 1 6 1 6.11352539 2.94946289 C6.10828857 3.7821167 6.10305176 4.61477051 6.09765625 5.47265625 C6.09443359 6.37177734 6.09121094 7.27089844 6.08789062 8.19726562 C6.07951172 9.14279297 6.07113281 10.08832031 6.0625 11.0625 C6.05798828 12.01189453 6.05347656 12.96128906 6.04882812 13.93945312 C6.0370011 16.29303065 6.02052025 18.64648477 6 21 C5.01 20.34 4.02 19.68 3 19 C2.34 19.33 1.68 19.66 1 20 C0.67 13.4 0.34 6.8 0 0 Z " fill="#171717" transform="translate(41,105)"/>
<path d="M0 0 C14.78132118 -0.18451025 14.78132118 -0.18451025 21 1 C21 1.66 21 2.32 21 3 C15.295349 5.21847539 9.11124031 6.61198474 3 7 C2.01 6.34 1.02 5.68 0 5 C0.99 4.34 1.98 3.68 3 3 C2.01 2.01 1.02 1.02 0 0 Z " fill="#0D0D0D" transform="translate(308,306)"/>
<path d="M0 0 C0.66 1.32 1.32 2.64 2 4 C2.66 4 3.32 4 4 4 C4.33801152 6.54112232 4.67053379 9.08276746 5 11.625 C5.09539063 12.33785156 5.19078125 13.05070312 5.2890625 13.78515625 C5.81606101 17.88821609 6.10466984 21.85245742 6 26 C5.34 26 4.68 26 4 26 C3.34 25.01 2.68 24.02 2 23 C1.34 22.34 0.68 21.68 0 21 C-0.22705078 18.84521484 -0.22705078 18.84521484 -0.1953125 16.2109375 C-0.18886719 15.26992187 -0.18242188 14.32890625 -0.17578125 13.359375 C-0.15902344 12.37453125 -0.14226563 11.3896875 -0.125 10.375 C-0.11597656 9.38242188 -0.10695312 8.38984375 -0.09765625 7.3671875 C-0.07404116 4.91121866 -0.04110799 2.45572832 0 0 Z " fill="#252525" transform="translate(39,63)"/>
<path d="M0 0 C2.64 0 5.28 0 8 0 C7.8125 1.875 7.8125 1.875 7 4 C2.1454003 6.73071233 -4.45300582 8 -10 8 C-9.67 6.35 -9.34 4.7 -9 3 C-5.92382812 2.70703125 -5.92382812 2.70703125 -2.84765625 2.4140625 C-2.23792969 2.27742187 -1.62820312 2.14078125 -1 2 C-0.67 1.34 -0.34 0.68 0 0 Z " fill="#505050" transform="translate(108,169)"/>
<path d="M0 0 C0.66 0.33 1.32 0.66 2 1 C1.34 1.66 0.68 2.32 0 3 C1.32 3.66 2.64 4.32 4 5 C3 8 3 8 0.1875 9.6875 C-3 11 -3 11 -7 11 C-7 8 -7 5 -7 2 C-6.401875 1.855625 -5.80375 1.71125 -5.1875 1.5625 C-3.43849596 1.1127561 -1.71322977 0.57107659 0 0 Z " fill="#404040" transform="translate(208,150)"/>
<path d="M0 0 C0.99 0 1.98 0 3 0 C3 0.99 3 1.98 3 3 C4.65 3 6.3 3 8 3 C8 3.33 8 3.66 8 4 C4.92382812 4.29296875 4.92382812 4.29296875 1.84765625 4.5859375 C1.23792969 4.72257812 0.62820312 4.85921875 0 5 C-0.33 5.66 -0.66 6.32 -1 7 C-1.66 7 -2.32 7 -3 7 C-3 6.34 -3 5.68 -3 5 C-9.435 5.495 -9.435 5.495 -16 6 C-16 5.67 -16 5.34 -16 5 C-19.96 4.67 -23.92 4.34 -28 4 C-28 3.67 -28 3.34 -28 3 C-19.98856421 2.39454736 -12.1126363 1.85976695 -4.07421875 2.16015625 C-1.77517106 2.20888617 -1.77517106 2.20888617 0 0 Z " fill="#131313" transform="translate(130,44)"/>
<path d="M0 0 C0 7.92 0 15.84 0 24 C-0.66 24 -1.32 24 -2 24 C-2.33885038 21.47980028 -2.67120335 18.95901484 -3 16.4375 C-3.09539062 15.73302734 -3.19078125 15.02855469 -3.2890625 14.30273438 C-3.86666417 9.82632145 -4.09489383 5.51338762 -4 1 C-1 0 -1 0 0 0 Z " fill="#BFBFBF" transform="translate(129,78)"/>
<path d="M0 0 C1.32 0.33 2.64 0.66 4 1 C4 1.66 4 2.32 4 3 C2.68 2.67 1.36 2.34 0 2 C0 1.34 0 0.68 0 0 Z M-7 1 C-4.69 1.33 -2.38 1.66 0 2 C0.33 4.31 0.66 6.62 1 9 C1.66 9 2.32 9 3 9 C3.33 10.32 3.66 11.64 4 13 C0.53245088 12.7027815 -0.98469519 12.01217428 -3.75 9.8125 C-6.21461548 6.73173064 -6.72903553 4.88382414 -7 1 Z " fill="#3E3E3E" transform="translate(225,274)"/>
<path d="M0 0 C0.99 0.33 1.98 0.66 3 1 C3.33 0.67 3.66 0.34 4 0 C5.66617115 -0.04063832 7.33388095 -0.042721 9 0 C9.33 1.65 9.66 3.3 10 5 C9.21625 5.12375 8.4325 5.2475 7.625 5.375 C4.85942178 5.79117993 4.85942178 5.79117993 3 8 C0.5625 7.9375 0.5625 7.9375 -2 7 C-3.8125 4.4375 -3.8125 4.4375 -5 2 C-3.35 2 -1.7 2 0 2 C0 1.34 0 0.68 0 0 Z " fill="#1D1D1D" transform="translate(251,253)"/>
<path d="M0 0 C5.45454545 -0.36363636 5.45454545 -0.36363636 7.875 1.25 C9 3 9 3 9 7 C5.62902617 8.49821059 3.79557881 9 0 9 C0 6.03 0 3.06 0 0 Z " fill="#E6E6E6" transform="translate(214,238)"/>
<path d="M0 0 C1.32 0 2.64 0 4 0 C3.731875 0.495 3.46375 0.99 3.1875 1.5 C1.56124507 4.9236946 0.30484829 8.44132285 -1 12 C-1.66 12 -2.32 12 -3 12 C-3.0825 12.53625 -3.165 13.0725 -3.25 13.625 C-4.26376098 16.8352431 -6.07160549 19.26292392 -8 22 C-8.33 21.01 -8.66 20.02 -9 19 C-8.04765827 17.30564968 -7.03771914 15.64344661 -6 14 C-5.08427453 11.76626504 -4.21029733 9.51503938 -3.375 7.25 C-1.09964413 1.09964413 -1.09964413 1.09964413 0 0 Z " fill="#D5D5D5" transform="translate(214,53)"/>
<path d="M0 0 C2.1519437 3.22791555 2.20086443 4.28400809 2 8 C-1.32607731 9.4254617 -4.4465963 10.34542563 -8 11 C-8.99 11.33 -9.98 11.66 -11 12 C-13.3406065 11.72230092 -15.67624308 11.39460023 -18 11 C-18 10.67 -18 10.34 -18 10 C-17.32453125 9.91363281 -16.6490625 9.82726563 -15.953125 9.73828125 C-10.18151908 8.93101291 -10.18151908 8.93101291 -5.625 5.5625 C-5.08875 4.716875 -4.5525 3.87125 -4 3 C-1.75 1.1875 -1.75 1.1875 0 0 Z " fill="#121212" transform="translate(248,33)"/>
<path d="M0 0 C0 4.95 0 9.9 0 15 C-1.65 15 -3.3 15 -5 15 C-4.88658363 12.68690295 -4.75896193 10.37449815 -4.625 8.0625 C-4.55539063 6.77472656 -4.48578125 5.48695313 -4.4140625 4.16015625 C-4.27742188 3.11730469 -4.14078125 2.07445312 -4 1 C-2 0 -2 0 0 0 Z " fill="#D8D8D8" transform="translate(53,288)"/>
<path d="M0 0 C0 3.63 0 7.26 0 11 C-2.31 11.33 -4.62 11.66 -7 12 C-7.287803 8.94928825 -7.4472872 6.03939738 -7 3 C-4.5776532 0.89638304 -3.21754366 0 0 0 Z " fill="#6B6B6B" transform="translate(102,260)"/>
<path d="M0 0 C0.33 0.66 0.66 1.32 1 2 C0.14453125 4.13671875 0.14453125 4.13671875 -1.1875 6.6875 C-1.64898437 7.57566406 -2.11046875 8.46382812 -2.5859375 9.37890625 C-4.3353302 12.6215651 -6.13492528 15.82246529 -8 19 C-8.66 19 -9.32 19 -10 19 C-10.49729238 13.65009646 -9.17133034 11.04017484 -6.125 6.6875 C-5.40570313 5.63949219 -4.68640625 4.59148438 -3.9453125 3.51171875 C-2 1 -2 1 0 0 Z " fill="#D8D8D8" transform="translate(288,59)"/>
<path d="M0 0 C4.72197309 2.9058296 4.72197309 2.9058296 5.484375 5.90625 C5.61985265 7.30271192 5.73313687 8.70150387 5.82421875 10.1015625 C6.03866002 12.41752824 6.78777932 14.03014139 8 16 C8.33 16.66 8.66 17.32 9 18 C8.02149805 19.02104551 7.02019573 20.0206121 6 21 C5.67 21 5.34 21 5 21 C4.89042969 20.443125 4.78085938 19.88625 4.66796875 19.3125 C3.83386964 15.29797422 2.89113027 11.50297477 1.375 7.6875 C0 4 0 4 0 0 Z M3 21 C3.66 21 4.32 21 5 21 C4.67 21.66 4.34 22.32 4 23 C3.67 22.34 3.34 21.68 3 21 Z " fill="#151515" transform="translate(183,289)"/>
<path d="M0 0 C2.31 0 4.62 0 7 0 C7.33 2.31 7.66 4.62 8 7 C6.02 7.99 6.02 7.99 4 9 C1.4375 6.75 1.4375 6.75 -1 4 C-0.8125 1.6875 -0.8125 1.6875 0 0 Z " fill="#161616" transform="translate(219,254)"/>
<path d="M0 0 C0.66 0 1.32 0 2 0 C2 1.65 2 3.3 2 5 C0.02 5.99 -1.96 6.98 -4 8 C-3.67 9.98 -3.34 11.96 -3 14 C-4.32 14 -5.64 14 -7 14 C-7.82756731 11.10351441 -8.06313804 9.27149356 -7.375 6.3125 C-5.64106296 3.39633316 -4.14864113 3.04954704 -1 2 C-0.67 1.34 -0.34 0.68 0 0 Z " fill="#474747" transform="translate(207,239)"/>
<path d="M0 0 C2.64 0.33 5.28 0.66 8 1 C8 2.32 8 3.64 8 5 C6.23050388 5.50471197 4.45934777 6.00360685 2.6875 6.5 C1.20830078 6.91765625 1.20830078 6.91765625 -0.30078125 7.34375 C-3 8 -3 8 -6 8 C-6 7.01 -6 6.02 -6 5 C-4.02 5 -2.04 5 0 5 C0 3.35 0 1.7 0 0 Z " fill="#E2E2E2" transform="translate(173,231)"/>
<path d="M0 0 C1.66611905 -0.042721 3.33382885 -0.04063832 5 0 C6 1 6 1 6.09765625 3.06640625 C6.08605469 3.89011719 6.07445312 4.71382813 6.0625 5.5625 C6.05347656 6.38878906 6.04445313 7.21507813 6.03515625 8.06640625 C6.01775391 9.02353516 6.01775391 9.02353516 6 10 C4.0625 10.5625 4.0625 10.5625 2 11 C0.33657163 9.33657163 0.63951903 7.2174291 0.4375 4.9375 C0.35371094 4.01839844 0.26992188 3.09929687 0.18359375 2.15234375 C0.09271484 1.08693359 0.09271484 1.08693359 0 0 Z " fill="#D4D4D4" transform="translate(55,71)"/>
<path d="M0 0 C2.16874252 0.50603992 3.99967627 0.99983813 6 2 C6.6875 4 6.6875 4 7 6 C4.88074396 8.11925604 0.3803907 7.41831017 -2.5625 7.5625 C-3.36880859 7.60568359 -4.17511719 7.64886719 -5.00585938 7.69335938 C-7.00368805 7.79975262 -9.0018207 7.90040888 -11 8 C-10.67 7.01 -10.34 6.02 -10 5 C-5.38 5 -0.76 5 4 5 C4 4.34 4 3.68 4 3 C2.68 2.67 1.36 2.34 0 2 C0 1.34 0 0.68 0 0 Z " fill="#2E2E2E" transform="translate(160,48)"/>
<path d="M0 0 C0.61254883 1.78417969 0.61254883 1.78417969 1 4 C-0.34441236 6.57800547 -1.6954841 8.85730278 -3.3125 11.25 C-3.72951172 11.8996875 -4.14652344 12.549375 -4.57617188 13.21875 C-5.65437444 14.8558295 -6.82117621 16.43381848 -8 18 C-8.66 18 -9.32 18 -10 18 C-9.31740614 10.76450512 -9.31740614 10.76450512 -6 8 C-5.67 7.01 -5.34 6.02 -5 5 C-4.01 4.67 -3.02 4.34 -2 4 C-0.79117904 1.99983534 -0.79117904 1.99983534 0 0 Z " fill="#CDCDCD" transform="translate(212,108)"/>
<path d="M0 0 C1.32 1.32 2.64 2.64 4 4 C3.34 5.32 2.68 6.64 2 8 C-0.78211944 7.62403791 -2.5879284 7.32681541 -4.8125 5.5625 C-6 4 -6 4 -6 2 C-4.02 1.34 -2.04 0.68 0 0 Z " fill="#101010" transform="translate(284,289)"/>
<path d="M0 0 C0.99 0 1.98 0 3 0 C3 1.32 3 2.64 3 4 C3.66 4.33 4.32 4.66 5 5 C4.21625 4.95875 3.4325 4.9175 2.625 4.875 C-0.16116119 4.71271266 -0.16116119 4.71271266 -2 7 C-6.54426055 8.44630689 -11.22525174 9.30804827 -16 9 C-16.33 8.34 -16.66 7.68 -17 7 C-16.10796875 6.91363281 -15.2159375 6.82726563 -14.296875 6.73828125 C-13.12640625 6.59777344 -11.9559375 6.45726562 -10.75 6.3125 C-9.58984375 6.18488281 -8.4296875 6.05726562 -7.234375 5.92578125 C-3.29966174 4.79954086 -2.35878485 3.23028279 0 0 Z " fill="#232323" transform="translate(204,41)"/>
<path d="M0 0 C2 1 2 1 3.125 3.0625 C4.2583306 6.86725273 4.13434296 10.0368828 4 14 C3.34 14 2.68 14 2 14 C-0.25 11.5 -0.25 11.5 -2 8 C-1.74814488 5.07218429 -0.9697935 2.81240115 0 0 Z " fill="#D9D9D9" transform="translate(161,218)"/>
<path d="M0 0 C2.3797234 2.3797234 2.58749232 3.74424795 3.25 7 C3.44078125 7.886875 3.6315625 8.77375 3.828125 9.6875 C3.88484375 10.450625 3.9415625 11.21375 4 12 C3.34 12.66 2.68 13.32 2 14 C1.83322718 17.58343976 1.83322718 17.58343976 2 21 C-0.34026817 18.65973183 -0.2861186 18.08470945 -0.44921875 14.90234375 C-0.49240234 14.10119141 -0.53558594 13.30003906 -0.58007812 12.47460938 C-0.61552734 11.63736328 -0.65097656 10.80011719 -0.6875 9.9375 C-0.73455078 9.09638672 -0.78160156 8.25527344 -0.83007812 7.38867188 C-0.93466494 5.26093035 -0.97271747 3.1301357 -1 1 C-0.67 0.67 -0.34 0.34 0 0 Z " fill="#161616" transform="translate(45,156)"/>
<path d="M0 0 C0.33 0 0.66 0 1 0 C1.34800762 4.29209399 0.41128697 6.66029513 -1.8125 10.3125 C-2.33457031 11.19550781 -2.85664063 12.07851562 -3.39453125 12.98828125 C-3.92433594 13.65214844 -4.45414062 14.31601563 -5 15 C-5.99 15 -6.98 15 -8 15 C-6.67744617 10.37106161 -4.78449719 6.91569917 -2 3 C-1.34 2.01 -0.68 1.02 0 0 Z " fill="#DADADA" transform="translate(272,66)"/>
<path d="M0 0 C0.99 0.33 1.98 0.66 3 1 C3 4.63 3 8.26 3 12 C2.34 12 1.68 12 1 12 C1 10.35 1 8.7 1 7 C0.67 8.65 0.34 10.3 0 12 C-0.66 12 -1.32 12 -2 12 C-2 8.37 -2 4.74 -2 1 C-1.34 0.67 -0.68 0.34 0 0 Z " fill="#6A6A6A" transform="translate(47,225)"/>
<path d="M0 0 C0.66 0 1.32 0 2 0 C0.35433477 5.68502535 -2.29032784 10.76681636 -5 16 C-5.66 16 -6.32 16 -7 16 C-6.56688677 10.36952802 -4.07551604 4.07551604 0 0 Z " fill="#D3D3D3" transform="translate(251,140)"/>
<path d="M0 0 C3 0 3 0 4.6875 1.375 C6 3 6 3 6 5 C0.72 5 -4.56 5 -10 5 C-10 4.34 -10 3.68 -10 3 C-6.7 2.67 -3.4 2.34 0 2 C0 1.34 0 0.68 0 0 Z " fill="#BBBBBB" transform="translate(297,301)"/>
<path d="M0 0 C0.99 0.33 1.98 0.66 3 1 C3 7.6 3 14.2 3 21 C2.34 20.67 1.68 20.34 1 20 C0.67 13.4 0.34 6.8 0 0 Z " fill="#C7C7C7" transform="translate(44,105)"/>
<path d="M0 0 C0.625 3.375 0.625 3.375 1 7 C0.34 7.66 -0.32 8.32 -1 9 C-2.32 9 -3.64 9 -5 9 C-5 6.36 -5 3.72 -5 1 C-3 0 -3 0 0 0 Z " fill="#EBEBEB" transform="translate(73,103)"/>
<path d="M0 0 C1.65 0.33 3.3 0.66 5 1 C6 4 6 4 5.0625 6.1875 C4.5365625 7.0846875 4.5365625 7.0846875 4 8 C2.35 7.67 0.7 7.34 -1 7 C-2 4 -2 4 -1.0625 1.8125 C-0.5365625 0.9153125 -0.5365625 0.9153125 0 0 Z " fill="#5B5B5B" transform="translate(251,220)"/>
<path d="M0 0 C2.0140956 3.0211434 2.26836596 3.80660017 2.4140625 7.23046875 C2.45273437 8.03291016 2.49140625 8.83535156 2.53125 9.66210938 C2.5621875 10.49548828 2.593125 11.32886719 2.625 12.1875 C2.66367187 13.03248047 2.70234375 13.87746094 2.7421875 14.74804688 C2.83636279 16.83167524 2.91926675 18.91580753 3 21 C2.34 21 1.68 21 1 21 C0.07811539 18.23434618 -0.11785222 16.61716298 -0.09765625 13.76953125 C-0.09282227 12.56586914 -0.09282227 12.56586914 -0.08789062 11.33789062 C-0.07951172 10.50451172 -0.07113281 9.67113281 -0.0625 8.8125 C-0.05798828 7.96751953 -0.05347656 7.12253906 -0.04882812 6.25195312 C-0.03705403 4.16793845 -0.0191189 2.08396023 0 0 Z " fill="#C4C4C4" transform="translate(42,68)"/>
<path d="M0 0 C0.33 0 0.66 0 1 0 C1 1.98 1 3.96 1 6 C1.66 6 2.32 6 3 6 C3.88826175 13.18808741 4.01202288 19.82242235 3 27 C2.67 27 2.34 27 2 27 C1.66078548 23.81309767 1.32970583 20.62539896 1 17.4375 C0.90460938 16.54224609 0.80921875 15.64699219 0.7109375 14.72460938 C0.20432035 9.78509212 -0.10897382 4.96511986 0 0 Z " fill="#141414" transform="translate(152,280)"/>
<path d="M0 0 C0.66 0 1.32 0 2 0 C2.33 1.32 2.66 2.64 3 4 C3.33 3.01 3.66 2.02 4 1 C7.65316671 2.24976756 8.78065836 2.67098753 11 6 C11.99 6.66 12.98 7.32 14 8 C13.01 8.33 12.02 8.66 11 9 C8.8125 7.5625 8.8125 7.5625 7 6 C6.67 6.66 6.34 7.32 6 8 C2.24623848 6.74874616 1.75926711 5.4347596 0 2 C0 1.34 0 0.68 0 0 Z " fill="#373737" transform="translate(214,280)"/>
<path d="M0 0 C0.86625 0.3403125 0.86625 0.3403125 1.75 0.6875 C1.75 2.6675 1.75 4.6475 1.75 6.6875 C-0.56 6.3575 -2.87 6.0275 -5.25 5.6875 C-5.58 4.6975 -5.91 3.7075 -6.25 2.6875 C-2.80384615 -0.38942308 -2.80384615 -0.38942308 0 0 Z " fill="#4C4C4C" transform="translate(107.25,199.3125)"/>
<path d="M0 0 C1.32 0.33 2.64 0.66 4 1 C3.34 1 2.68 1 2 1 C2 1.66 2 2.32 2 3 C2.66 3.33 3.32 3.66 4 4 C3.01 6.31 2.02 8.62 1 11 C-0.65 10.67 -2.3 10.34 -4 10 C-3.67 9.01 -3.34 8.02 -3 7 C-2.34 7 -1.68 7 -1 7 C-0.67 4.69 -0.34 2.38 0 0 Z " fill="#191919" transform="translate(96,248)"/>
<path d="M0 0 C0.66 0.66 1.32 1.32 2 2 C-6.49208584 2.73598077 -14.53095523 3.29526567 -23 2 C-23 1.67 -23 1.34 -23 1 C-20.47932687 0.83054298 -17.95850616 0.66436516 -15.4375 0.5 C-14.73302734 0.45230469 -14.02855469 0.40460938 -13.30273438 0.35546875 C-4.37354863 -0.22060775 -4.37354863 -0.22060775 0 0 Z " fill="#191919" transform="translate(307,312)"/>
<path d="M0 0 C-1.24976756 3.65316671 -1.67098753 4.78065836 -5 7 C-5.99 7 -6.98 7 -8 7 C-8 5.02 -8 3.04 -8 1 C-5.23735711 0.40267181 -2.83967231 0 0 0 Z " fill="#EBEBEB" transform="translate(179,200)"/>
<path d="M0 0 C1.32 0.66 2.64 1.32 4 2 C4 3.65 4 5.3 4 7 C3.01 7.495 3.01 7.495 2 8 C-0.625 7.0625 -0.625 7.0625 -3 6 C-1.125 1.125 -1.125 1.125 0 0 Z " fill="#494949" transform="translate(81,112)"/>
<path d="M0 0 C-0.46001912 2.14675591 -0.96282727 3.93030113 -2 5.875 C-3.25330113 8.5382649 -3.60416681 11.09722329 -4 14 C-6.52883142 10.20675288 -6.61200158 7.45092058 -6 3 C-4.09357744 0.09497515 -3.53576709 0 0 0 Z " fill="#171717" transform="translate(255,29)"/>
<path d="M0 0 C0.3125 3.3125 0.3125 3.3125 0 7 C-2.5 8.9375 -2.5 8.9375 -5 10 C-5.29296875 3.9453125 -5.29296875 3.9453125 -5 2 C-2 0 -2 0 0 0 Z " fill="#DADADA" transform="translate(74,288)"/>
<path d="M0 0 C0 0.33 0 0.66 0 1 C-1.65 1 -3.3 1 -5 1 C-4.67 2.32 -4.34 3.64 -4 5 C-5.32 5.99 -6.64 6.98 -8 8 C-8.103125 7.360625 -8.20625 6.72125 -8.3125 6.0625 C-8.539375 5.381875 -8.76625 4.70125 -9 4 C-9.99 3.67 -10.98 3.34 -12 3 C-12 2.34 -12 1.68 -12 1 C-8.0186217 -0.3271261 -4.14954773 -0.06915913 0 0 Z " fill="#424242" transform="translate(251,254)"/>
<path d="M0 0 C2.64 0.33 5.28 0.66 8 1 C8 1.33 8 1.66 8 2 C10.31 2.33 12.62 2.66 15 3 C15 3.33 15 3.66 15 4 C12.7089095 4.19441368 10.41709663 4.38033135 8.125 4.5625 C6.21074219 4.71912109 6.21074219 4.71912109 4.2578125 4.87890625 C1 5 1 5 -1 4 C-0.67 2.68 -0.34 1.36 0 0 Z " fill="#262626" transform="translate(24,100)"/>
<path d="M0 0 C0.66 0 1.32 0 2 0 C4.24828052 4.49656104 4.16682272 8.07872966 4 13 C3.01 13.33 2.02 13.66 1 14 C0.67 9.38 0.34 4.76 0 0 Z " fill="#121212" transform="translate(38,84)"/>
<path d="M0 0 C1.32 0 2.64 0 4 0 C4.33 2.31 4.66 4.62 5 7 C3.35 7.33 1.7 7.66 0 8 C-0.98120464 4.94736336 -0.98120464 3.05263664 0 0 Z " fill="#606060" transform="translate(205,257)"/>
<path d="M0 0 C1.32 0.33 2.64 0.66 4 1 C4 3.64 4 6.28 4 9 C2.68 9 1.36 9 0 9 C0 6.03 0 3.06 0 0 Z " fill="#D7D7D7" transform="translate(107,135)"/>
<path d="M0 0 C0 1.32 0 2.64 0 4 C-2.90600261 5.25664978 -4.79604584 6 -8 6 C-7.67 4.35 -7.34 2.7 -7 1 C-4 0 -4 0 0 0 Z " fill="#C1C1C1" transform="translate(106,171)"/>
<path d="M0 0 C0.33 0 0.66 0 1 0 C1.33 6.93 1.66 13.86 2 21 C1.01 21.33 0.02 21.66 -1 22 C-1.33 19.69 -1.66 17.38 -2 15 C-1.34 15 -0.68 15 0 15 C0 10.05 0 5.1 0 0 Z " fill="#212121" transform="translate(44,187)"/>
<path d="M0 0 C0.3636198 4.24223102 -0.4606772 6.58168085 -3 10 C-3.66 10 -4.32 10 -5 10 C-5 7.03 -5 4.06 -5 1 C-2 0 -2 0 0 0 Z " fill="#474747" transform="translate(104,286)"/>
<path d="M0 0 C0 1.32 0 2.64 0 4 C-2.31 4.33 -4.62 4.66 -7 5 C-7 3.68 -7 2.36 -7 1 C-3.375 -1.125 -3.375 -1.125 0 0 Z " fill="#D5D5D5" transform="translate(75,117)"/>
<path d="M0 0 C0.99 0 1.98 0 3 0 C4.4783226 2.95664519 4.06032783 5.74229737 4 9 C3.01 9 2.02 9 1 9 C0.67 6.03 0.34 3.06 0 0 Z " fill="#BBBBBB" transform="translate(51,185)"/>
<path d="M0 0 C-1.23932829 3.43198603 -2.50301511 6.30325632 -5 9 C-5.99 9 -6.98 9 -8 9 C-6.53333333 3.5 -6.53333333 3.5 -4 1.125 C-2 0 -2 0 0 0 Z " fill="#D6D6D6" transform="translate(211,134)"/>
<path d="M0 0 C0.33 0 0.66 0 1 0 C1 2.64 1 5.28 1 8 C2.98 8 4.96 8 7 8 C7 8.99 7 9.98 7 11 C6.34 11 5.68 11 5 11 C5 11.66 5 12.32 5 13 C4.01 13.33 3.02 13.66 2 14 C-0.3992233 9.35150485 -0.19957409 5.08913926 0 0 Z " fill="#1A1A1A" transform="translate(67,104)"/>
<path d="M0 0 C0.99 0 1.98 0 3 0 C4.42944945 2.35438733 5.08661261 3.48032433 4.625 6.25 C4.41875 6.8275 4.2125 7.405 4 8 C2.68 7.67 1.36 7.34 0 7 C-1.125 2.25 -1.125 2.25 0 0 Z " fill="#5E5E5E" transform="translate(76,74)"/>
<path d="M0 0 C0 0.66 0 1.32 0 2 C2.97 2.495 2.97 2.495 6 3 C6 3.33 6 3.66 6 4 C1.545 4.495 1.545 4.495 -3 5 C-2.67 3.35 -2.34 1.7 -2 0 C-3.98 0.33 -5.96 0.66 -8 1 C-8.33 0.34 -8.66 -0.32 -9 -1 C-5.38055101 -2.34053666 -3.42632833 -1.61798838 0 0 Z " fill="#181818" transform="translate(32,52)"/>
<path d="M0 0 C3.3 0 6.6 0 10 0 C10 0.99 10 1.98 10 3 C6.7 3 3.4 3 0 3 C0 2.01 0 1.02 0 0 Z " fill="#ECECEC" transform="translate(194,304)"/>
<path d="M0 0 C0.99 0 1.98 0 3 0 C3.33 3.3 3.66 6.6 4 10 C3.01 9.67 2.02 9.34 1 9 C0.67 6.03 0.34 3.06 0 0 Z " fill="#C2C2C2" transform="translate(53,201)"/>
<path d="M0 0 C0.66 0 1.32 0 2 0 C2.33 1.65 2.66 3.3 3 5 C1.68 5 0.36 5 -1 5 C-1 4.34 -1 3.68 -1 3 C-1.66 3 -2.32 3 -3 3 C-3 3.66 -3 4.32 -3 5 C-4.32 5 -5.64 5 -7 5 C-7 3.68 -7 2.36 -7 1 C-4.69 1.33 -2.38 1.66 0 2 C0 1.34 0 0.68 0 0 Z " fill="#5A5A5A" transform="translate(61,49)"/>
<path d="M0 0 C2.125 0.375 2.125 0.375 4 1 C3.67 1.99 3.34 2.98 3 4 C1.8553125 4.2165625 1.8553125 4.2165625 0.6875 4.4375 C-2.08172908 4.9632594 -2.08172908 4.9632594 -5 6 C-7.3406065 5.72230092 -9.67624308 5.39460023 -12 5 C-12 4.67 -12 4.34 -12 4 C-10.95199219 3.81824219 -10.95199219 3.81824219 -9.8828125 3.6328125 C-8.51769531 3.38144531 -8.51769531 3.38144531 -7.125 3.125 C-5.76761719 2.88136719 -5.76761719 2.88136719 -4.3828125 2.6328125 C-1.83494012 2.16955297 -1.83494012 2.16955297 0 0 Z " fill="#474747" transform="translate(242,39)"/>
<path d="M0 0 C0.99 0.33 1.98 0.66 3 1 C2.67 3.97 2.34 6.94 2 10 C0.68 10.33 -0.64 10.66 -2 11 C-1.85957123 9.35369672 -1.71250671 7.70795821 -1.5625 6.0625 C-1.48128906 5.14597656 -1.40007813 4.22945312 -1.31640625 3.28515625 C-1 1 -1 1 0 0 Z " fill="#1D1D1D" transform="translate(41,31)"/>
<path d="M0 0 C3.27742098 3.10026309 5.93104837 5.97098894 8 10 C8 10.66 8 11.32 8 12 C7.01 12 6.02 12 5 12 C4.16180842 10.37750059 3.3295884 8.75191503 2.5 7.125 C2.0359375 6.22007812 1.571875 5.31515625 1.09375 4.3828125 C0 2 0 2 0 0 Z " fill="#C4C4C4" transform="translate(200,285)"/>
<path d="M0 0 C1.98 0 3.96 0 6 0 C6.33 0.99 6.66 1.98 7 3 C6.34 3 5.68 3 5 3 C5 3.66 5 4.32 5 5 C2.03 4.505 2.03 4.505 -1 4 C-0.67 2.68 -0.34 1.36 0 0 Z " fill="#4C4C4C" transform="translate(231,283)"/>
<path d="M0 0 C2.375 -0.1875 2.375 -0.1875 5 0 C7 3 7 3 6.625 5.1875 C6.41875 5.785625 6.2125 6.38375 6 7 C5.38125 6.2884375 5.38125 6.2884375 4.75 5.5625 C2.817815 3.83733482 1.51807725 3.43415125 -1 3 C-0.67 2.01 -0.34 1.02 0 0 Z " fill="#D4D4D4" transform="translate(225,170)"/>
<path d="M0 0 C0.66 0 1.32 0 2 0 C2.33 3.63 2.66 7.26 3 11 C2.01 11.33 1.02 11.66 0 12 C0 8.04 0 4.08 0 0 Z " fill="#C5C5C5" transform="translate(49,71)"/>
<path d="M0 0 C1.32 0 2.64 0 4 0 C4.33 1.32 4.66 2.64 5 4 C3.1875 5.0625 3.1875 5.0625 1 6 C0.01 5.67 -0.98 5.34 -2 5 C-1.34 3.35 -0.68 1.7 0 0 Z " fill="#757575" transform="translate(231,61)"/>
<path d="M0 0 C3.51098025 4.01254885 5.76537994 8.20983041 8 13 C7.01 13 6.02 13 5 13 C4.15615325 11.58957044 3.32530504 10.17135868 2.5 8.75 C2.0359375 7.96109375 1.571875 7.1721875 1.09375 6.359375 C0 4 0 4 0 0 Z " fill="#111111" transform="translate(263,226)"/>
<path d="M0 0 C2.86453858 3.41016497 4.34703566 6.90694544 6 11 C5.34 11.66 4.68 12.32 4 13 C3.13372601 11.40233897 2.28233535 9.79660056 1.4375 8.1875 C0.96183594 7.29417969 0.48617187 6.40085938 -0.00390625 5.48046875 C-1 3 -1 3 0 0 Z " fill="#202020" transform="translate(241,183)"/>
<path d="M0 0 C5.625 -0.25 5.625 -0.25 9 2 C8.67 2.99 8.34 3.98 8 5 C5.36 4.34 2.72 3.68 0 3 C0 2.01 0 1.02 0 0 Z " fill="#131313" transform="translate(35,152)"/>
<path d="M0 0 C1.32 0 2.64 0 4 0 C4 0.99 4 1.98 4 3 C4.66 3 5.32 3 6 3 C6 4.32 6 5.64 6 7 C4.35 7 2.7 7 1 7 C0.67 4.69 0.34 2.38 0 0 Z " fill="#5B5B5B" transform="translate(99,137)"/>
<path d="M0 0 C0.66 0 1.32 0 2 0 C2.36521739 5.47826087 2.36521739 5.47826087 0.6875 7.875 C-1 9 -1 9 -4 9 C-2.80100302 5.9168649 -1.52299523 2.93720508 0 0 Z " fill="#565656" transform="translate(246,72)"/>
<path d="M0 0 C3.63 0.66 7.26 1.32 11 2 C11 2.66 11 3.32 11 4 C7.04 3.67 3.08 3.34 -1 3 C-0.67 2.01 -0.34 1.02 0 0 Z " fill="#2A2A2A" transform="translate(323,45)"/>
<path d="M0 0 C0.99 0.33 1.98 0.66 3 1 C2.34 5.29 1.68 9.58 1 14 C0.67 14 0.34 14 0 14 C-0.19532961 12.2300132 -0.38098882 10.45895721 -0.5625 8.6875 C-0.66691406 7.70136719 -0.77132812 6.71523438 -0.87890625 5.69921875 C-1 3 -1 3 0 0 Z " fill="#111111" transform="translate(54,288)"/>
<path d="M0 0 C2.3125 -0.25 2.3125 -0.25 5 0 C6.97610386 2.04424538 8 3.1176825 8 6 C5.6875 5.8125 5.6875 5.8125 3 5 C1.1875 2.4375 1.1875 2.4375 0 0 Z " fill="#DCDCDC" transform="translate(246,255)"/>
<path d="M0 0 C1.32 0 2.64 0 4 0 C4 2.31 4 4.62 4 7 C2.35 6.67 0.7 6.34 -1 6 C-1.042721 4.33388095 -1.04063832 2.66617115 -1 1 C-0.67 0.67 -0.34 0.34 0 0 Z " fill="#737373" transform="translate(50,249)"/>
<path d="M0 0 C0.99 0.33 1.98 0.66 3 1 C3 3.97 3 6.94 3 10 C2.34 10 1.68 10 1 10 C-0.60725635 6.78548731 -0.05748185 3.56387464 0 0 Z " fill="#DBDBDB" transform="translate(55,221)"/>
<path d="M0 0 C1.125 1.5 1.125 1.5 2 4 C1.57598348 6.7773082 0.81108065 9.29639783 0 12 C-0.33 12 -0.66 12 -1 12 C-1.33 8.37 -1.66 4.74 -2 1 C-1.34 0.67 -0.68 0.34 0 0 Z " fill="#151515" transform="translate(54,70)"/>
<path d="M0 0 C0.99 0 1.98 0 3 0 C3 0.99 3 1.98 3 3 C4.65 3 6.3 3 8 3 C8 3.33 8 3.66 8 4 C3.545 4.495 3.545 4.495 -1 5 C-1.33 4.01 -1.66 3.02 -2 2 C-1.34 1.34 -0.68 0.68 0 0 Z M-3 5 C-2.34 5 -1.68 5 -1 5 C-1 5.66 -1 6.32 -1 7 C-1.66 7 -2.32 7 -3 7 C-3 6.34 -3 5.68 -3 5 Z " fill="#2D2D2D" transform="translate(130,44)"/>
<path d="M0 0 C0.66 0 1.32 0 2 0 C2 1.65 2 3.3 2 5 C-2.455 5.495 -2.455 5.495 -7 6 C-5.6100869 3.22017379 -3.81341647 3.12536659 -1 2 C-0.67 1.34 -0.34 0.68 0 0 Z " fill="#DFDFDF" transform="translate(207,239)"/>
<path d="M0 0 C0.66 0 1.32 0 2 0 C2.66 1.32 3.32 2.64 4 4 C3.34 4.66 2.68 5.32 2 6 C1.67 6.99 1.34 7.98 1 9 C-0.625 7.3125 -0.625 7.3125 -2 5 C-1.1875 2.25 -1.1875 2.25 0 0 Z " fill="#606060" transform="translate(159,227)"/>
<path d="M0 0 C2.97 0.495 2.97 0.495 6 1 C5.1875 2.9375 5.1875 2.9375 4 5 C3.01 5.33 2.02 5.66 1 6 C0.67 4.02 0.34 2.04 0 0 Z " fill="#DBDBDB" transform="translate(220,176)"/>
<path d="M0 0 C1 3 1 3 -0.4375 6.1875 C-1.2109375 7.5796875 -1.2109375 7.5796875 -2 9 C-2.66 9 -3.32 9 -4 9 C-4.25 6.1875 -4.25 6.1875 -4 3 C-2 1.125 -2 1.125 0 0 Z " fill="#E7E7E7" transform="translate(282,69)"/>
<path d="M0 0 C0.66 0 1.32 0 2 0 C3.65 3.3 5.3 6.6 7 10 C6.01 10.495 6.01 10.495 5 11 C4.15841464 9.73461631 3.32700252 8.46246221 2.5 7.1875 C1.80390625 6.12595703 1.80390625 6.12595703 1.09375 5.04296875 C0 3 0 3 0 0 Z " fill="#1F1F1F" transform="translate(293,281)"/>
<path d="M0 0 C0.66 0 1.32 0 2 0 C2.38922918 1.28745036 2.76098036 2.58019597 3.125 3.875 C3.33382812 4.59429687 3.54265625 5.31359375 3.7578125 6.0546875 C3.83773437 6.69664062 3.91765625 7.33859375 4 8 C3.34 8.66 2.68 9.32 2 10 C1.34 9.67 0.68 9.34 0 9 C0 6.03 0 3.06 0 0 Z " fill="#606060" transform="translate(230,254)"/>
<path d="M0 0 C1.65 0 3.3 0 5 0 C5.33 2.31 5.66 4.62 6 7 C5.34 7 4.68 7 4 7 C0 2.52941176 0 2.52941176 0 0 Z " fill="#D6D6D6" transform="translate(219,254)"/>
<path d="M0 0 C0.99 0.99 1.98 1.98 3 3 C3 4.32 3 5.64 3 7 C2.34 7 1.68 7 1 7 C1 7.66 1 8.32 1 9 C0.01 9 -0.98 9 -2 9 C-1.34 6.03 -0.68 3.06 0 0 Z " fill="#C0C0C0" transform="translate(216,224)"/>
<path d="M0 0 C2.125 0.375 2.125 0.375 4 1 C2.68 1.33 1.36 1.66 0 2 C0.20625 3.11375 0.4125 4.2275 0.625 5.375 C0.74875 6.57125 0.8725 7.7675 1 9 C0.34 9.66 -0.32 10.32 -1 11 C-2.50662097 7.98675805 -2.17770373 5.31713623 -2 2 C-1.34 1.34 -0.68 0.68 0 0 Z " fill="#111111" transform="translate(53,199)"/>
<path d="M0 0 C0.66 0 1.32 0 2 0 C0.35821735 4.77609498 -2.26546702 8.79382904 -5 13 C-5.33 12.01 -5.66 11.02 -6 10 C-4.17811188 6.48187121 -2.19549682 3.29324523 0 0 Z " fill="#B0B0B0" transform="translate(173,103)"/>
<path d="M0 0 C2.64 0.33 5.28 0.66 8 1 C8 1.99 8 2.98 8 4 C5.6875 4.625 5.6875 4.625 3 5 C2.01 4.34 1.02 3.68 0 3 C0 2.01 0 1.02 0 0 Z " fill="#6E6E6E" transform="translate(121,51)"/>
<path d="M0 0 C0.37769531 0.50144531 0.75539062 1.00289063 1.14453125 1.51953125 C0.14453125 2.51953125 0.14453125 2.51953125 -3.41796875 2.58203125 C-4.55234375 2.56140625 -5.68671875 2.54078125 -6.85546875 2.51953125 C-6.85546875 2.18953125 -6.85546875 1.85953125 -6.85546875 1.51953125 C-9.82546875 1.02453125 -9.82546875 1.02453125 -12.85546875 0.51953125 C-12.85546875 0.18953125 -12.85546875 -0.14046875 -12.85546875 -0.48046875 C-11.08733763 -0.72962814 -9.31571893 -0.95413507 -7.54296875 -1.16796875 C-6.55683594 -1.29558594 -5.57070312 -1.42320312 -4.5546875 -1.5546875 C-1.85546875 -1.48046875 -1.85546875 -1.48046875 0 0 Z " fill="#1E1E1E" transform="translate(171.85546875,311.48046875)"/>
<path d="M0 0 C2 0.8125 2 0.8125 3.25 2.875 C3.4975 3.514375 3.745 4.15375 4 4.8125 C1.23723823 4.28981534 -1.3260876 3.70380413 -4 2.8125 C-4 2.1525 -4 1.4925 -4 0.8125 C-2 -0.1875 -2 -0.1875 0 0 Z " fill="#CBCBCB" transform="translate(282,290.1875)"/>
<path d="M0 0 C0.99 0.33 1.98 0.66 3 1 C3 3.64 3 6.28 3 9 C2.34 9 1.68 9 1 9 C-0.4783226 6.04335481 -0.06032783 3.25770263 0 0 Z " fill="#C1C1C1" transform="translate(108,220)"/>
<path d="M0 0 C0.66 0.33 1.32 0.66 2 1 C2 1.99 2 2.98 2 4 C1.01 4.495 1.01 4.495 0 5 C0 5.99 0 6.98 0 8 C-0.99 7.67 -1.98 7.34 -3 7 C-3 5.02 -3 3.04 -3 1 C-2.01 0.67 -1.02 0.34 0 0 Z " fill="#626262" transform="translate(163,174)"/>
<path d="M0 0 C1.2065625 0.0309375 1.2065625 0.0309375 2.4375 0.0625 C2.4375 1.7125 2.4375 3.3625 2.4375 5.0625 C1.4475 5.3925 0.4575 5.7225 -0.5625 6.0625 C-1.5525 4.4125 -2.5425 2.7625 -3.5625 1.0625 C-2.5625 0.0625 -2.5625 0.0625 0 0 Z " fill="#676767" transform="translate(133.5625,60.9375)"/>
<path d="M0 0 C0 0.66 0 1.32 0 2 C-2.64458379 3.32229189 -4.67761301 3.09677194 -7.625 3.0625 C-8.62789063 3.05347656 -9.63078125 3.04445313 -10.6640625 3.03515625 C-11.43492187 3.02355469 -12.20578125 3.01195312 -13 3 C-8.73164405 0.73214781 -4.83970587 0 0 0 Z " fill="#2B2B2B" transform="translate(329,307)"/>
<path d="M0 0 C1.32 0 2.64 0 4 0 C3.67 1.65 3.34 3.3 3 5 C1.68 5.33 0.36 5.66 -1 6 C-0.67 4.02 -0.34 2.04 0 0 Z " fill="#CACACA" transform="translate(223,160)"/>
<path d="M0 0 C0.66 0.33 1.32 0.66 2 1 C2 3.64 2 6.28 2 9 C0.68 9 -0.64 9 -2 9 C-1.34 6.03 -0.68 3.06 0 0 Z " fill="#D9D9D9" transform="translate(110,102)"/>
<path d="M0 0 C1.32 0.66 2.64 1.32 4 2 C3.67 3.32 3.34 4.64 3 6 C1.35 5.67 -0.3 5.34 -2 5 C-1.125 1.125 -1.125 1.125 0 0 Z " fill="#2F2F2F" transform="translate(259,60)"/>
<path d="M0 0 C1.25 1.5625 1.25 1.5625 2 4 C0.93237266 6.57001015 -0.46544943 8.6530403 -2 11 C-2.66 11 -3.32 11 -4 11 C-2.7874262 7.27566618 -1.49140021 3.62197194 0 0 Z " fill="#191919" transform="translate(289,58)"/>
<path d="M0 0 C1.65 0 3.3 0 5 0 C4.1875 2.9375 4.1875 2.9375 3 6 C2.01 6.33 1.02 6.66 0 7 C0 4.69 0 2.38 0 0 Z " fill="#181818" transform="translate(133,49)"/>
<path d="M0 0 C0.33 0.66 0.66 1.32 1 2 C1.66 2 2.32 2 3 2 C3 3.32 3 4.64 3 6 C1.35 5.67 -0.3 5.34 -2 5 C-2 4.01 -2 3.02 -2 2 C-1.34 2 -0.68 2 0 2 C0 1.34 0 0.68 0 0 Z " fill="#141414" transform="translate(238,315)"/>
<path d="M0 0 C2.97 0 5.94 0 9 0 C9.33 0.66 9.66 1.32 10 2 C7.24921116 2.91692961 5.64051087 3.10886083 2.8125 3.0625 C0.9253125 3.0315625 0.9253125 3.0315625 -1 3 C-0.67 2.01 -0.34 1.02 0 0 Z " fill="#222222" transform="translate(50,316)"/>
<path d="M0 0 C0.99 0.33 1.98 0.66 3 1 C3 2.65 3 4.3 3 6 C2.01 6.33 1.02 6.66 0 7 C-1 6 -1 6 -1.125 3.5 C-1 1 -1 1 0 0 Z " fill="#5B5B5B" transform="translate(50,174)"/>
<path d="M0 0 C1.32 0 2.64 0 4 0 C4 2.31 4 4.62 4 7 C2.68 7 1.36 7 0 7 C0.2784375 6.1028125 0.2784375 6.1028125 0.5625 5.1875 C1.22093687 2.83591238 1.22093687 2.83591238 0 0 Z " fill="#2D2D2D" transform="translate(94,139)"/>
<path d="M0 0 C0.66 0 1.32 0 2 0 C1.71125 0.70125 1.4225 1.4025 1.125 2.125 C-0.02133588 5.05452503 -1.02625654 8.00921653 -2 11 C-2.66 10.67 -3.32 10.34 -4 10 C-3.43697042 6.05879291 -2.3208055 3.2491277 0 0 Z " fill="#151515" transform="translate(301,70)"/>
<path d="M0 0 C1.98 0 3.96 0 6 0 C4.1875 2.5 4.1875 2.5 2 5 C1.01 5 0.02 5 -1 5 C-0.67 3.35 -0.34 1.7 0 0 Z " fill="#D0D0D0" transform="translate(272,51)"/>
<path d="M0 0 C1.4540625 0.0309375 1.4540625 0.0309375 2.9375 0.0625 C2.2775 0.7225 1.6175 1.3825 0.9375 2.0625 C-0.3825 2.0625 -1.7025 2.0625 -3.0625 2.0625 C-3.0625 3.3825 -3.0625 4.7025 -3.0625 6.0625 C-4.0525 5.7325 -5.0425 5.4025 -6.0625 5.0625 C-3.64893617 0.07446809 -3.64893617 0.07446809 0 0 Z " fill="#151515" transform="translate(147.0625,314.9375)"/>
<path d="M0 0 C0.66 0 1.32 0 2 0 C2.125 5.75 2.125 5.75 1 8 C0.34 8 -0.32 8 -1 8 C-1.04241723 5.66705225 -1.04092937 3.33297433 -1 1 C-0.67 0.67 -0.34 0.34 0 0 Z " fill="#DDDDDD" transform="translate(224,108)"/>
<path d="M0 0 C2.31 0.33 4.62 0.66 7 1 C7 1.66 7 2.32 7 3 C4.69 3.33 2.38 3.66 0 4 C0 2.68 0 1.36 0 0 Z " fill="#CECECE" transform="translate(189,292)"/>
<path d="M0 0 C0.99 0.33 1.98 0.66 3 1 C3 2.98 3 4.96 3 7 C2.01 7 1.02 7 0 7 C0 4.69 0 2.38 0 0 Z " fill="#C5C5C5" transform="translate(69,255)"/>
<path d="M0 0 C1.67542976 0.28604898 3.34385343 0.61781233 5 1 C4.67 1.99 4.34 2.98 4 4 C1.9375 4.6875 1.9375 4.6875 0 5 C-0.5625 3.0625 -0.5625 3.0625 -1 1 C-0.67 0.67 -0.34 0.34 0 0 Z " fill="#545454" transform="translate(190,228)"/>
<path d="M0 0 C2 1.8125 2 1.8125 4 4 C4 4.99 4 5.98 4 7 C2.68 6.67 1.36 6.34 0 6 C0 4.02 0 2.04 0 0 Z " fill="#C5C5C5" transform="translate(233,222)"/>
<path d="M0 0 C0.99 0.33 1.98 0.66 3 1 C3 3.64 3 6.28 3 9 C2.34 9 1.68 9 1 9 C0.67 6.03 0.34 3.06 0 0 Z " fill="#A4A4A4" transform="translate(135,222)"/>
<path d="M0 0 C1.32 0 2.64 0 4 0 C3.67 1.32 3.34 2.64 3 4 C1.68 4 0.36 4 -1 4 C-0.67 2.68 -0.34 1.36 0 0 Z " fill="#616161" transform="translate(179,216)"/>
<path d="M0 0 C0.66 0 1.32 0 2 0 C2.66 1.98 3.32 3.96 4 6 C2.35 5.67 0.7 5.34 -1 5 C-0.67 3.35 -0.34 1.7 0 0 Z " fill="#C8C8C8" transform="translate(245,208)"/>
<path d="M0 0 C0.33 0.66 0.66 1.32 1 2 C1.99 2.33 2.98 2.66 4 3 C5.6875 6.0625 5.6875 6.0625 7 9 C6.01 9 5.02 9 4 9 C0 3.85714286 0 3.85714286 0 0 Z " fill="#171717" transform="translate(250,204)"/>
<path d="M0 0 C0.66 0.66 1.32 1.32 2 2 C1.34 2 0.68 2 0 2 C0 1.34 0 0.68 0 0 Z M-8 1 C-7.67 2.32 -7.34 3.64 -7 5 C-5.35 4.67 -3.7 4.34 -2 4 C-2.33 4.99 -2.66 5.98 -3 7 C-4.65 6.67 -6.3 6.34 -8 6 C-8 4.35 -8 2.7 -8 1 Z " fill="#191919" transform="translate(178,202)"/>
<path d="M0 0 C1.65 0 3.3 0 5 0 C5 1.32 5 2.64 5 4 C4.34 4 3.68 4 3 4 C3 4.66 3 5.32 3 6 C2.34 5.67 1.68 5.34 1 5 C0.375 2.4375 0.375 2.4375 0 0 Z " fill="#616161" transform="translate(119,140)"/>
<path d="M0 0 C1.5 1.375 1.5 1.375 3 3 C3 3.66 3 4.32 3 5 C2.01 5.33 1.02 5.66 0 6 C-0.66 5.67 -1.32 5.34 -2 5 C-2 3.68 -2 2.36 -2 1 C-1.34 0.67 -0.68 0.34 0 0 Z " fill="#424242" transform="translate(182,133)"/>
<path d="M0 0 C1.98 0 3.96 0 6 0 C6 0.99 6 1.98 6 3 C3.69 3 1.38 3 -1 3 C-0.67 2.01 -0.34 1.02 0 0 Z " fill="#BFBFBF" transform="translate(114,51)"/>
<path d="M0 0 C3 1 3 1 4.1875 3.0625 C4.455625 3.701875 4.72375 4.34125 5 5 C4.01 5.33 3.02 5.66 2 6 C1.67 5.01 1.34 4.02 1 3 C-0.32 3.33 -1.64 3.66 -3 4 C-2.01 2.68 -1.02 1.36 0 0 Z " fill="#151515" transform="translate(97,40)"/>
<path d="M0 0 C0.99 0 1.98 0 3 0 C3.33 1.32 3.66 2.64 4 4 C1.69 4 -0.62 4 -3 4 C-2.67 3.34 -2.34 2.68 -2 2 C-1.34 2 -0.68 2 0 2 C0 1.34 0 0.68 0 0 Z " fill="#E2E2E2" transform="translate(297,301)"/>
<path d="M0 0 C2.5 1.8125 2.5 1.8125 5 4 C5 4.99 5 5.98 5 7 C3.68 7 2.36 7 1 7 C0.67 4.69 0.34 2.38 0 0 Z " fill="#0F0F0F" transform="translate(183,289)"/>
<path d="M0 0 C0.66 0.33 1.32 0.66 2 1 C0.6875 3.9375 0.6875 3.9375 -1 7 C-1.99 7.33 -2.98 7.66 -4 8 C-3.50168276 4.31245243 -2.89932357 2.39509338 0 0 Z " fill="#232323" transform="translate(41,285)"/>
<path d="M0 0 C1.65 0 3.3 0 5 0 C5.33 1.32 5.66 2.64 6 4 C4.35 3.67 2.7 3.34 1 3 C0.67 2.01 0.34 1.02 0 0 Z " fill="#DCDCDC" transform="translate(223,283)"/>
<path d="M0 0 C0.66 0.66 1.32 1.32 2 2 C1.625 5.125 1.625 5.125 1 8 C-0.32 7.34 -1.64 6.68 -3 6 C-3 5.34 -3 4.68 -3 4 C-2.34 4 -1.68 4 -1 4 C-0.67 2.68 -0.34 1.36 0 0 Z " fill="#111111" transform="translate(159,219)"/>
<path d="M0 0 C-1.28062485 1.7074998 -2.61767557 3.37373596 -4 5 C-4.66 5 -5.32 5 -6 5 C-6 3.35 -6 1.7 -6 0 C-3.50907189 -1.24546405 -2.58919267 -0.7767578 0 0 Z " fill="#3D3D3D" transform="translate(56,166)"/>
<path d="M0 0 C1.32 0.66 2.64 1.32 4 2 C3.34 3.32 2.68 4.64 2 6 C1.01 5.67 0.02 5.34 -1 5 C-0.67 3.35 -0.34 1.7 0 0 Z " fill="#252525" transform="translate(187,121)"/>
<path d="M0 0 C0.66 0.33 1.32 0.66 2 1 C2.59355614 3.64860427 2.74209269 6.29197322 3 9 C1.68 8.67 0.36 8.34 -1 8 C-1.04241723 5.66705225 -1.04092937 3.33297433 -1 1 C-0.67 0.67 -0.34 0.34 0 0 Z " fill="#2E2E2E" transform="translate(221,108)"/>
<path d="M0 0 C0.66 0.66 1.32 1.32 2 2 C0.68 4.64 -0.64 7.28 -2 10 C-2.66 9.67 -3.32 9.34 -4 9 C-2.94124926 5.59687262 -1.99097846 2.98646769 0 0 Z " fill="#171717" transform="translate(291,90)"/>
<path d="M0 0 C0.66 0 1.32 0 2 0 C3.42944945 2.35438733 4.08661261 3.48032433 3.625 6.25 C3.41875 6.8275 3.2125 7.405 3 8 C2.01 7.34 1.02 6.68 0 6 C-0.1875 2.875 -0.1875 2.875 0 0 Z " fill="#222222" transform="translate(203,72)"/>
<path d="M0 0 C0.66 0.66 1.32 1.32 2 2 C0.68 4.31 -0.64 6.62 -2 9 C-2.66 8.01 -3.32 7.02 -4 6 C-2.68 4.02 -1.36 2.04 0 0 Z " fill="#202020" transform="translate(185,69)"/>
<path d="M0 0 C0.33 0 0.66 0 1 0 C1.26218749 3.14624993 1.24754367 4.61837017 -0.5 7.3125 C-1.2425 8.1478125 -1.2425 8.1478125 -2 9 C-2.66 7.68 -3.32 6.36 -4 5 C-2.69254251 3.31295807 -1.35827971 1.64639965 0 0 Z " fill="#CBCBCB" transform="translate(272,66)"/>
<path d="M0 0 C0.66 0 1.32 0 2 0 C2 1.65 2 3.3 2 5 C0.35 5 -1.3 5 -3 5 C-1.125 1.125 -1.125 1.125 0 0 Z " fill="#D9D9D9" transform="translate(127,62)"/>
<path d="M0 0 C0.66 0 1.32 0 2 0 C1.67 2.64 1.34 5.28 1 8 C0.34 8 -0.32 8 -1 8 C-1.04241723 5.66705225 -1.04092937 3.33297433 -1 1 C-0.67 0.67 -0.34 0.34 0 0 Z " fill="#C4C4C4" transform="translate(107,283)"/>
<path d="M0 0 C0.66 1.32 1.32 2.64 2 4 C0.35 4.66 -1.3 5.32 -3 6 C-2.625 3.5625 -2.625 3.5625 -2 1 C-1.34 0.67 -0.68 0.34 0 0 Z " fill="#757575" transform="translate(53,273)"/>
<path d="M0 0 C0.99 0 1.98 0 3 0 C3.66 2.31 4.32 4.62 5 7 C4.01 6.67 3.02 6.34 2 6 C0.8125 2.9375 0.8125 2.9375 0 0 Z " fill="#BFBFBF" transform="translate(175,251)"/>
<path d="M0 0 C0.33 0 0.66 0 1 0 C0.67 2.31 0.34 4.62 0 7 C-1.32 7.33 -2.64 7.66 -4 8 C-3.67 7.01 -3.34 6.02 -3 5 C-2.34 5 -1.68 5 -1 5 C-0.67 3.35 -0.34 1.7 0 0 Z " fill="#D1D1D1" transform="translate(96,250)"/>
<path d="M0 0 C1.32 0.33 2.64 0.66 4 1 C4.33 2.32 4.66 3.64 5 5 C3.68 5 2.36 5 1 5 C0.67 3.35 0.34 1.7 0 0 Z " fill="#C5C5C5" transform="translate(249,244)"/>
<path d="M0 0 C1.32 0 2.64 0 4 0 C3.67 1.65 3.34 3.3 3 5 C2.01 5 1.02 5 0 5 C0 3.35 0 1.7 0 0 Z " fill="#BFBFBF" transform="translate(161,191)"/>
<path d="M0 0 C0.99 0 1.98 0 3 0 C3.33 2.31 3.66 4.62 4 7 C3.34 7 2.68 7 2 7 C1.34 4.69 0.68 2.38 0 0 Z " fill="#BDBDBD" transform="translate(110,118)"/>
<path d="M0 0 C0.33 0.99 0.66 1.98 1 3 C-0.8125 5.6875 -0.8125 5.6875 -3 8 C-3.66 8 -4.32 8 -5 8 C-4.1875 5.5625 -4.1875 5.5625 -3 3 C-2.01 2.67 -1.02 2.34 0 2 C0 1.34 0 0.68 0 0 Z " fill="#121212" transform="translate(212,66)"/>
<path d="M0 0 C1.32 0.66 2.64 1.32 4 2 C2.68 3.32 1.36 4.64 0 6 C-0.66 5.67 -1.32 5.34 -2 5 C-1.125 1.125 -1.125 1.125 0 0 Z " fill="#656565" transform="translate(268,58)"/>
<path d="M0 0 C0.66 0.99 1.32 1.98 2 3 C1.01 4.98 0.02 6.96 -1 9 C-1.66 8.67 -2.32 8.34 -3 8 C-1.125 2.25 -1.125 2.25 0 0 Z " fill="#1A1A1A" transform="translate(211,54)"/>
<path d="M0 0 C1.32 0 2.64 0 4 0 C3.67 1.32 3.34 2.64 3 4 C1.35 4 -0.3 4 -2 4 C-2 3.34 -2 2.68 -2 2 C-1.34 2 -0.68 2 0 2 C0 1.34 0 0.68 0 0 Z " fill="#CACACA" transform="translate(234,54)"/>
<path d="M0 0 C0.99 0 1.98 0 3 0 C3 1.32 3 2.64 3 4 C3.66 4.33 4.32 4.66 5 5 C3.02 5 1.04 5 -1 5 C-0.67 3.35 -0.34 1.7 0 0 Z " fill="#171717" transform="translate(204,41)"/>
<path d="M0 0 C0.99 0.33 1.98 0.66 3 1 C3 2.98 3 4.96 3 7 C1.68 6.34 0.36 5.68 -1 5 C-0.67 3.35 -0.34 1.7 0 0 Z " fill="#191919" transform="translate(44,319)"/>
<path d="M0 0 C2.475 0.495 2.475 0.495 5 1 C4.67 2.32 4.34 3.64 4 5 C3.34 5 2.68 5 2 5 C1.34 3.35 0.68 1.7 0 0 Z " fill="#E8E8E8" transform="translate(218,275)"/>
<path d="M0 0 C0.99 0 1.98 0 3 0 C2.67 1.65 2.34 3.3 2 5 C1.01 5.33 0.02 5.66 -1 6 C-1.66 5.34 -2.32 4.68 -3 4 C-2.505 3.525625 -2.01 3.05125 -1.5 2.5625 C0.11542197 1.24076302 0.11542197 1.24076302 0 0 Z " fill="#1C1C1C" transform="translate(297,267)"/>
<path d="M0 0 C1.32 0 2.64 0 4 0 C4.33 0.99 4.66 1.98 5 3 C3.35 3.33 1.7 3.66 0 4 C0 2.68 0 1.36 0 0 Z " fill="#C3C3C3" transform="translate(256,255)"/>
<path d="M0 0 C0.99 0.33 1.98 0.66 3 1 C4.1875 4.0625 4.1875 4.0625 5 7 C4.01 7 3.02 7 2 7 C1.34 4.69 0.68 2.38 0 0 Z " fill="#1A1A1A" transform="translate(271,242)"/>
<path d="M0 0 C0 1.65 0 3.3 0 5 C-0.99 4.67 -1.98 4.34 -3 4 C-2.67 3.01 -2.34 2.02 -2 1 C-3.65 1 -5.3 1 -7 1 C-7 0.67 -7 0.34 -7 0 C-2.25 -1.125 -2.25 -1.125 0 0 Z " fill="#151515" transform="translate(268,220)"/>
<path d="M0 0 C1.65 0 3.3 0 5 0 C5 1.32 5 2.64 5 4 C3.35 3.67 1.7 3.34 0 3 C0 2.01 0 1.02 0 0 Z " fill="#404040" transform="translate(79,149)"/>
<path d="M0 0 C0.99 0 1.98 0 3 0 C3.33 1.65 3.66 3.3 4 5 C3.01 5.495 3.01 5.495 2 6 C1.34 5.67 0.68 5.34 0 5 C0 3.35 0 1.7 0 0 Z " fill="#333333" transform="translate(191,140)"/>
<path d="M0 0 C1.32 0.66 2.64 1.32 4 2 C3.67 2.99 3.34 3.98 3 5 C2.01 5 1.02 5 0 5 C-0.5625 3.0625 -0.5625 3.0625 -1 1 C-0.67 0.67 -0.34 0.34 0 0 Z " fill="#313131" transform="translate(81,133)"/>
<path d="M0 0 C2.0625 0.4375 2.0625 0.4375 4 1 C4 1.99 4 2.98 4 4 C2.68 4 1.36 4 0 4 C-0.33 3.01 -0.66 2.02 -1 1 C-0.67 0.67 -0.34 0.34 0 0 Z " fill="#3E3E3E" transform="translate(254,131)"/>
<path d="M0 0 C0.93065133 2.60582371 1.14917407 3.64198224 0.0625 6.25 C-0.4634375 7.11625 -0.4634375 7.11625 -1 8 C-1.99 7.67 -2.98 7.34 -4 7 C-2.68 4.69 -1.36 2.38 0 0 Z " fill="#252525" transform="translate(163,108)"/>
<path d="M0 0 C0.66 0.33 1.32 0.66 2 1 C1.50168276 4.68754757 0.89932357 6.60490662 -2 9 C-2.33 8.01 -2.66 7.02 -3 6 C-2.34 5.34 -1.68 4.68 -1 4 C-0.3574765 1.93125966 -0.3574765 1.93125966 0 0 Z " fill="#1C1C1C" transform="translate(169,96)"/>
<path d="M0 0 C0.66 0.66 1.32 1.32 2 2 C0.68 4.31 -0.64 6.62 -2 9 C-2.6875 7.3125 -2.6875 7.3125 -3 5 C-1.5625 2.25 -1.5625 2.25 0 0 Z " fill="#181818" transform="translate(284,69)"/>
<path d="M0 0 C0.66 0 1.32 0 2 0 C1.67 2.31 1.34 4.62 1 7 C0.34 7 -0.32 7 -1 7 C-0.67 4.69 -0.34 2.38 0 0 Z " fill="#B4B4B4" transform="translate(253,71)"/>
<path d="M0 0 C1.875 0.3125 1.875 0.3125 4 1 C4.66 1.99 5.32 2.98 6 4 C3 5 3 5 0 4 C0 2.68 0 1.36 0 0 Z " fill="#4F4F4F" transform="translate(106,49)"/>
<path d="M0 0 C0.99 0 1.98 0 3 0 C2.38722388 2.96175123 1.74627478 4.38058783 0 7 C0 6.01 0 5.02 0 4 C-0.66 3.67 -1.32 3.34 -2 3 C-1.34 2.01 -0.68 1.02 0 0 Z " fill="#0C0C0C" transform="translate(252,29)"/>
</svg>
